/* XPM */
static char *KRT[] = {
/* columns rows colors chars-per-pixel */
"62 62 58 1",
"  c #000000",
". c #050505",
"X c #0B0B0B",
"o c #0D0D0D",
"O c #101010",
"+ c #171717",
"@ c #191919",
"# c #1F1F1F",
"$ c #232323",
"% c #252525",
"& c #2B2B2B",
"* c #2E2E2E",
"= c #313131",
"- c #343434",
"; c #383838",
": c #3D3D3D",
"> c #434343",
", c #444444",
"< c #494949",
"1 c #515151",
"2 c #565656",
"3 c #595959",
"4 c #5F5F5F",
"5 c #606060",
"6 c #666666",
"7 c #676767",
"8 c #6C6C6C",
"9 c #727272",
"0 c #797979",
"q c #7D7D7D",
"w c #828282",
"e c #848484",
"r c #898989",
"t c #8B8B8B",
"y c #989898",
"u c #9F9F9F",
"i c #A3A3A3",
"p c #A4A4A4",
"a c #AAAAAA",
"s c #B0B0B0",
"d c #B7B7B7",
"f c #B8B8B8",
"g c #BFBFBF",
"h c #C3C3C3",
"j c #C8C8C8",
"k c #CECECE",
"l c #D2D2D2",
"z c #D7D7D7",
"x c #DADADA",
"c c #DFDFDF",
"v c #E3E3E3",
"b c #E7E7E7",
"n c #EAEAEA",
"m c #EDEDED",
"M c #F2F2F2",
"N c #F5F5F5",
"B c #FAFAFA",
"V c #FFFFFF",
/* pixels */
"                                                              ",
" BBBBBBBBBBBBBBBBBBBBBBBBBBBBBBBBBBBBBBBBBBBBBBBBBBBBBBBBBBBB ",
" BBBBBBBBBBBBBBBBBBBBBBBBBBBBBBBBB BBBBBBBBBBBBBBBBBBBBBBBBBB ",
" BB$eBBBBBBBBBBBBBBBBBBBBBBBBBBBBB BBBBBBBBBBBBBBBBBBBBBBBBBB ",
" BBc$eBBBBBBBBBBBBBBBBBBBBBBBBBBBB BBBBBBBBBBBBBBBBBBBBBBBBBB ",
" BBBc$eBBBBBBBBBBBBBBBBBBBBBBBBBBB BBBBBBBBBBBBBBBBBBBBBBBBBB ",
" BBBBc$eBBBBBBBBBBBBBBBBBBBBBBBBBB BBBBBBBBBBBBBBBBBBBBBBBBBB ",
" BBBBBc$eBBBBBBBBBBBBBBBBBBBBBBBBB BBBBBBBBBBBBBBBBBBBBBBBBBB ",
" BBBBBBc$eBBBBBBBBBBBBBBBBBBBBBBBB BBBBBBBBBBBBBBBBBBBBBBBBBB ",
" BBBBBBBc$eBBBBBBBBBBBBBBBBBBBBBBB BBBBBBBBBBBBBBBBBBBBBBBBBB ",
" BBBBBBBBc$eBBBBBBBBBBBBBBBBBBBBBB BBBBBBBBBBBBBBBBBBBBBBBBBB ",
" BBBBBBBBBc$eBBBBBBBBBBBBBBBBBBBBB BBBBBBBBBBBBBBBBBBBBBBBBBB ",
" BBBBBBBBBBc$eBBBBBBBBBBBBBBBBBBBB BBBBBBBBBBBBBBBBBBBBBBBBBB ",
" BBBBBBBBBBBc$eBBBBBBBBBBBBBBBBBBB BBBBBBBBBBBBBBBBBBBBBBBBBB ",
" BBBBBBBBBBBBc$eBBBBBBBBBBBBBBBB    oBBBBBBBBBBBBBBBBBBBBBBBB ",
" BBBBBBBBBBBBBc$eBBBBBBBBBBBBBBB+   +BBBBBBBBBBBBBBBBBBBBBBBB ",
" BBBBBBBBBBBBBBc%wBBBBBBBBBBBBBB&   *BBBBBBBBBBBBBBBBBBBBBBBB ",
" BBBBBBBBBBBBBBBv$wBBBBBBBBBBBBB,   <BBBBBBBBBBBBBBBBBBBBBBBB ",
" BBBBBBBBBBBBBBBBc%wBBBBBBBBBBBB5   6BBBBBBBBBBBBBBBBBBBBBBBB ",
" BBBBBBBBBBBBBBBBBc%eBBBBBBBBBBBw.  tBBBBBBBBBBBBBBBBBBBBBBBB ",
" BBBBBBBBBBBBBBBBBBc$eBBBBBBBBBByo opBBBBBBBBBBBBBBBBBBBBBBBB ",
" BBBBBBBBBBBBBBBBBBBc$eBBBBBBBBBdO ogBBBBBBBBBBBBBBBBBBBBBBBB ",
" BBBBBBBBBBBBBBBBBBBBc$eBBBBBBBBkO ozBBBBBBBBBBBBBBBBBBBBBBBB ",
" BBBBBBBBBBBBBBBBBBBBBc$eBBBBBBBbX .mBBBBBBBBBBBBBBBBBBBBBBBB ",
" BBBBBBBBBBBBBBBBBBBBBBc$eBBBBBBB. .BBBBBBBBBBBBBBBBBBBBBBBBB ",
" BBBBBBBBBBBBBBBBBBBBBBBc$eBBBBBB+ +BBBBBBBBBBBBBBBBBBBBBBBBB ",
" BBBBBBBBBBBBBBBBBBBBBBBBc$eBBBBB% *BBBBBBBBBBBBBBBBBBBBBBBBB ",
" BBBBBBBBBBBBBBBBBBBBBBBBBc$eBBBB> <BBBBBBBBBBBBBBBBBBBBBBBBB ",
" BBBBBBBBBBBBBBBBBBBBBBBBBBc$eBBB2 4BBBBBBBBBBBBBBBBBBBBBBBBB ",
" BBBBBBBBBBBBBBBBBBBBBBBBBBBc$ev@. .@nBBBBBBBBBBBBBBBBBBBBBBB ",
" BBBBBBBBBBBBBBBBBBBBBBBBBBBBc$O6y p5OBBBBBBBBBBBBBBBBBBBBBBB ",
" BBBBBBBBBBBBBBBBBBBBBBBBBBBBB=-Vf gV=,BBBBBBBBBBBBBBBBBBBBBB ",
" BBBBBBBBBBBBBBBBBBBBBBBBBBBBB+fVl xVs+BBBBBBBBBBBBBBBBBBBBBB ",
" BBdddddddddddddddddddddddddddovVn NVvoBBBBBBBBBBBBBBBBBBBBBB ",
" BB>>>>>>>>>>>>>>>,,>>>>>>>>,,.NVV=VVM.BBBBBBBBBBBBBBBBBBBBBB ",
" BBBBBBBBBBBBBBBBBBBBBBBBBBBBBOlVVVVVkOBBBBBBBBBBBBBBBBBBBBBB ",
" BBBBBBBBBBBBBBBBBBBBBBBBBBBBB@wVVVVV9+BBBBBBBBBBBBBBBBBBBBBB ",
" BBBBBBBBBBBBBBBBBBBBBBBBBBBBBaozVVVlogBBBBBBBBBBBBBBBBBBBBBB ",
" BBBBBBBBBBBBBBBBBBBBBBBBBBBBBB&oqsqO=BBBBBBBBBBBBBBBBBBBBBBB ",
" BBBBBBBBBBBBBBBBBBBBBBBBBBBBBn@0+++0@mBBBBBBBBBBBBBBBBBBBBBB ",
" BBBBBBBBBBBBBBBBBBBBBBBBBBBBB94BBBBB20BBBBBBBBBBBBBBBBBBBBBB ",
" BBBBBBBBBBBBBBBBBBBBBBBBBBBBcOcBBBBBcOvBBBBBBBBBBBBBBBBBBBBB ",
" BBBBBBBBBBBBBBBBBBBBBBBBBBBB30BBBBBBB85BBBBBBBBBBBBBBBBBBBBB ",
" BBBBBBBBBBBBBBBBBBBBBBBBBBBj+mBBBBBBBb+kBBBBBBBBBBBBBBBBVBBB ",
" BBBBBBBBBBBBBBBBBBBBBBBBBBB>tBBBBBBBBBt<BBBBBBBBBBBBBBBBBBBB ",
" BBBBBBBBBBBBBBBBBBBBBBBBBBs%NBBBBBBBBBN@fBBBBBBBBBBBBBBBBBBB ",
" BBBBBBBBBBBBBBBBBBBBBBBBBN&aBBBBBBBBBBBp-NBBBBBBBBBBBBBBBBBB ",
" BBBBBBBBBBBBBBBBBBBBBBBBBy;BBBBBBBBBBBBB=uBBBBBBBBBBBBBBBBBB ",
" BBBBBBBBBBBBBBBBBBBBBBBBM@hBBBBBBBBBBBBBf@NBBBBBBBBBBBBBBBBB ",
" BBBBBBBBBBBBBBBBBBBBBBBBq1BBBBBBBBBBBBBBB<tBBBBBBBBBBBBBBBBB ",
" BBBBBBBBBBBBBBBBBBBBBBBvOzBBBBBBBBBBBBBBBlOnBBBBBBBBBBBBBBBB ",
" BBBBBBBBBBBBBBBBBBBBBBB68BBBBBBBBBBBBBBBBB68BBBBBBBBBBBBBBBB ",
" BBBBBBBBBBBBBBBBBBBBBBlObBBBBBBBBBBBBBBBBBvOxBBBBBBBBBBBBBBB ",
" BBBBBBBBBBBBBBBBBBBBBB;5ddddddddddddddddddd3:BBBBBBBBBBBBBBB ",
" BBBBBBBBBBBBBBBBBBBBBMO>>>>>>>>>>>>>>>>>>,,>OMBBBBBBBBBBBBBB ",
" BBBBBBBBBBBBBBBBBBBBBBBBBBBBBBBBBBBBBBBBBBBBBBBBBBBBBBBBBBBB ",
" BBBBBBBBBBBBBBBBBBBBBBBBBBBBBBBBBBBBBBBBBBBBBBBBBBBBBBBBBBBB ",
" BBBBBBBBBBBBBBBBBBBBBBffdddddddddddddddddddddBBBBBBBBBBBBBBB ",
" BBBBBBBBBBBBBBBBBBBBBB,>>>>>>>>>>>>>>>>>>>>>>BBBBBBBBBBBBBBB ",
" BBBBBBBBBBBBBBBBBBBBBBBBBBBBBBBBBBBBBBBBBBBBBBBBBBBBBBBBBBBB ",
" BBBBBBBBBBBBBBBBBBBBBBBBBBBBBBBBBBBBBBBBBBBBBBBBBBBBBBBBBBBB ",
"                                                              "
};
