/* XPM */
static char * dagii_xpm[] = {
"32 32 11 1",
" 	c None",
".	c #000000",
"+	c #7E2A2A",
"@	c #FC5454",
"#	c #FCFCFC",
"$	c #7E7E7E",
"%	c #D22A2A",
"&	c #A80000",
"*	c #2A2A2A",
"=	c #545454",
"-	c #A8A8A8",
"           .......              ",
"         ...........            ",
"         ...........            ",
"         ..+@@@@@+..            ",
"         ##$...$#$..            ",
"         ....+@+....            ",
"         @@@@%&%@@@@   ...      ",
"         @@@@@@@@@@@   ..*==    ",
"           @@@@@@@       =====  ",
"       ....$#$.$#$....     --$==",
"     ......$#$.$#$......   ---  ",
"     ......$#$.$#$......   ---  ",
"   ......$###$.$###$...... ---  ",
"   ......$###$.$###$.......+@@  ",
"   ......$###$.$###$.......+@@  ",
"   ......$#########$.... ..=--  ",
"   .....................   ---  ",
"   @@+...*=*.*=*.*=*....   ---  ",
"   @@+..................   ---  ",
"     ...................   ---  ",
"     ...................   ---  ",
"       ...............     ---  ",
"         ...........       ---  ",
"         ..... .....       ---  ",
"         ..... .....       ---  ",
"         ..... .....       ---  ",
"         ..... .....       ---  ",
"         ..... .....       ---  ",
"         ..... .....       ---  ",
"           ### ### ...     ---  ",
"         ..... .......     ---  ",
"       ....... .....   ========="};
